<?xml version="1.0" encoding="UTF-8"?>
<svg xmlns="http://www.w3.org/2000/svg" viewBox="0 0 512 512">
  <defs>
    <clipPath id="clip">
      <path d="M256,25 L487,256 L256,487 L25,256 Z"/>
    </clipPath>
  </defs>
  <!-- White background -->
  <path d="M256,25 L487,256 L256,487 L25,256 Z" fill="white"/>
  <!-- Red border -->
  <path d="M256,25 L487,256 L256,487 L25,256 Z" fill="none" stroke="#C1272D" stroke-width="25"/>
  <!-- Explosion symbol -->
  <g transform="translate(256,256)">
    <circle cx="0" cy="0" r="60" fill="#000000"/>
    <!-- Burst lines -->
    <line x1="0" y1="-60" x2="0" y2="-120" stroke="#000000" stroke-width="15" stroke-linecap="round"/>
    <line x1="42" y1="-42" x2="85" y2="-85" stroke="#000000" stroke-width="15" stroke-linecap="round"/>
    <line x1="60" y1="0" x2="120" y2="0" stroke="#000000" stroke-width="15" stroke-linecap="round"/>
    <line x1="42" y1="42" x2="85" y2="85" stroke="#000000" stroke-width="15" stroke-linecap="round"/>
    <line x1="0" y1="60" x2="0" y2="120" stroke="#000000" stroke-width="15" stroke-linecap="round"/>
    <line x1="-42" y1="42" x2="-85" y2="85" stroke="#000000" stroke-width="15" stroke-linecap="round"/>
    <line x1="-60" y1="0" x2="-120" y2="0" stroke="#000000" stroke-width="15" stroke-linecap="round"/>
    <line x1="-42" y1="-42" x2="-85" y2="-85" stroke="#000000" stroke-width="15" stroke-linecap="round"/>
  </g>
</svg>
